<?xml version="1.0" standalone="no"?>
<!DOCTYPE svg PUBLIC "-//W3C//DTD SVG 20010904//EN"
 "http://www.w3.org/TR/2001/REC-SVG-20010904/DTD/svg10.dtd">
<svg version="1.0" xmlns="http://www.w3.org/2000/svg"
 width="1280.000000pt" height="936.000000pt" viewBox="0 0 1280.000000 936.000000"
 preserveAspectRatio="xMidYMid meet">
<metadata>
Created by potrace 1.15, written by Peter Selinger 2001-2017
</metadata>
<g transform="translate(0.000000,936.000000) scale(0.100000,-0.100000)"
fill="#000000" stroke="none">
<path d="M12510 9335 c-30 -13 -127 -51 -215 -85 -213 -83 -205 -79 -205 -106
0 -28 -5 -30 -169 -99 -69 -29 -358 -150 -641 -270 -283 -119 -551 -232 -595
-250 -44 -18 -172 -72 -285 -120 -200 -85 -464 -195 -625 -260 -183 -75 -315
-128 -390 -160 -74 -31 -762 -314 -1075 -442 -74 -30 -187 -77 -250 -103 -63
-26 -191 -77 -285 -113 -176 -68 -271 -102 -945 -337 -77 -27 -89 -34 -200
-120 -90 -70 -183 -134 -234 -162 -25 -13 -48 -15 -111 -11 -68 5 -84 3 -98
-11 -26 -26 -22 -88 8 -124 14 -17 25 -34 25 -39 0 -13 -79 -77 -120 -98 -40
-20 -120 -94 -120 -110 0 -6 -15 -29 -33 -51 -18 -21 -44 -54 -57 -73 -12 -18
-39 -40 -59 -48 l-35 -15 -46 50 c-54 60 -94 82 -151 82 -56 0 -200 -45 -228
-71 -62 -58 -126 -201 -156 -350 l-18 -87 -76 -43 c-42 -23 -127 -71 -188
-106 -109 -62 -133 -69 -133 -37 0 26 -101 245 -162 351 -32 56 -58 104 -58
107 0 3 15 27 34 53 44 62 87 146 95 185 l6 31 260 -2 c306 -2 391 11 529 78
97 47 183 131 225 221 24 50 26 66 25 176 0 102 -4 128 -22 165 -12 24 -31 50
-42 57 -29 18 -172 29 -520 41 -526 19 -484 13 -513 74 -9 18 -59 86 -112 152
-54 66 -125 158 -158 205 -191 265 -323 402 -461 479 -129 71 -191 85 -341 76
-66 -4 -156 -13 -200 -20 -44 -7 -136 -22 -205 -33 -69 -11 -158 -26 -198 -33
-70 -13 -73 -13 -88 9 -32 46 -171 18 -194 -38 -18 -43 -88 -96 -209 -158
-146 -75 -178 -99 -320 -237 -179 -174 -265 -286 -325 -425 -16 -36 -44 -97
-62 -137 -18 -40 -36 -85 -40 -100 -4 -15 -11 -33 -15 -39 -5 -6 -15 -56 -24
-112 -8 -56 -24 -134 -34 -174 -11 -40 -22 -93 -25 -118 -10 -69 -17 -74 -56
-45 -58 42 -82 26 -60 -40 10 -31 10 -39 -6 -56 -21 -23 -13 -34 35 -46 40
-10 51 -28 21 -36 -22 -6 -28 -37 -6 -37 7 0 34 -9 59 -20 38 -17 50 -29 70
-73 18 -39 22 -58 15 -76 -6 -17 -4 -30 7 -45 8 -12 31 -44 51 -73 40 -57 39
-64 -18 -133 -15 -19 -28 -42 -28 -51 0 -9 -7 -22 -15 -29 -8 -7 -15 -18 -15
-24 0 -7 -13 -30 -30 -52 -36 -48 -37 -68 -5 -109 24 -33 24 -33 5 -55 -14
-16 -20 -38 -20 -72 0 -26 -2 -48 -5 -48 -3 0 -47 20 -98 44 -52 25 -114 48
-143 51 l-51 6 -43 -48 c-58 -66 -81 -116 -88 -187 -2 -34 -11 -70 -18 -81 -8
-11 -14 -41 -14 -67 0 -25 -5 -59 -11 -75 -8 -20 -7 -38 2 -65 12 -36 11 -37
-39 -95 -28 -32 -65 -79 -84 -104 -18 -26 -59 -78 -91 -115 -93 -109 -153
-206 -181 -292 -29 -86 -36 -95 -111 -138 -64 -37 -185 -152 -224 -213 -46
-71 -108 -227 -141 -354 -34 -130 -100 -459 -100 -498 0 -15 -7 -32 -15 -39
-8 -7 -15 -17 -15 -23 0 -14 -68 -208 -82 -231 -5 -11 -14 -71 -19 -135 -13
-154 -44 -340 -65 -384 -16 -32 -16 -43 -4 -94 7 -32 27 -92 43 -133 33 -82
43 -157 40 -297 -1 -73 1 -93 12 -93 7 0 15 6 18 13 10 29 16 -101 21 -463 3
-212 10 -475 16 -585 14 -255 37 -576 43 -581 2 -2 1142 -3 2534 -2 l2530 3
-26 55 c-202 418 -485 1129 -468 1175 3 7 27 16 54 19 26 4 64 11 83 16 19 5
116 25 216 44 99 19 193 40 208 46 31 11 153 45 236 65 30 7 98 16 150 19 79
6 126 17 280 68 102 34 212 74 245 89 33 14 105 41 159 59 120 38 195 75 263
128 42 33 61 60 108 154 74 144 92 170 209 298 76 83 99 115 111 155 8 28 37
100 66 160 160 342 188 427 172 527 -3 22 -1 44 5 51 6 7 14 32 18 54 4 27 18
55 40 78 38 41 52 94 35 131 -10 22 -16 24 -80 24 -38 0 -72 4 -75 9 -3 5 16
78 43 162 66 207 82 263 136 479 54 218 74 294 167 620 39 135 88 322 109 415
91 398 123 496 198 613 50 76 137 143 227 172 38 13 86 31 106 41 21 11 45 19
55 19 10 1 34 14 53 30 19 17 38 30 42 30 4 0 27 14 52 30 24 17 63 37 86 45
57 20 97 51 116 88 14 26 15 46 8 112 -11 116 -9 173 10 238 29 95 85 146 183
167 26 6 71 23 98 38 48 26 50 29 58 82 4 30 10 101 13 157 l6 103 126 72 c70
39 197 117 282 174 146 97 159 103 220 110 36 4 73 11 83 16 28 15 47 70 47
140 l0 63 157 64 c147 60 158 63 182 50 17 -10 26 -24 26 -39 1 -21 5 -25 29
-22 41 5 133 41 153 60 16 16 14 17 -29 20 -26 2 -51 9 -57 16 -23 27 49 72
269 166 118 50 229 98 245 105 17 8 179 78 360 155 1250 537 1640 711 1657
743 17 32 3 91 -36 148 -25 38 -36 65 -36 91 0 50 -15 87 -53 126 -38 39 -77
41 -157 7z m-5220 -3037 c0 -6 -25 -58 -55 -115 -46 -86 -63 -133 -100 -276
-83 -325 -184 -658 -237 -778 -9 -19 -21 -50 -28 -69 -20 -53 -136 -314 -185
-415 -71 -146 -182 -304 -204 -291 -6 4 -48 60 -91 124 -44 64 -99 145 -122
178 -24 34 -59 94 -78 134 l-35 73 29 21 c17 11 71 62 122 112 98 96 96 92
109 214 3 32 19 82 37 118 29 58 31 66 21 115 -6 28 -13 59 -17 67 -5 13 11
15 116 15 113 0 129 2 191 29 78 33 168 109 198 167 14 29 19 59 19 125 0 75
-4 93 -25 130 -24 40 -72 72 -150 99 -18 6 -16 8 12 20 66 28 109 49 148 74
44 27 293 139 313 140 6 1 12 -4 12 -11z m-512 -314 c73 -62 99 -136 77 -212
-31 -104 -123 -202 -189 -202 -24 0 -39 10 -63 40 -40 47 -41 60 -7 60 97 0
159 167 104 275 l-21 40 22 18 c28 23 29 23 77 -19z m-330 -221 c5 -10 14 -39
20 -64 7 -26 15 -55 18 -65 5 -13 4 -16 -4 -9 -14 14 -61 155 -51 155 5 0 12
-8 17 -17z m-938 -1108 c52 -26 51 -26 71 -147 13 -88 7 -266 -11 -316 -8 -21
-30 -44 -65 -67 -79 -53 -169 -163 -226 -277 -50 -99 -50 -100 -71 -82 -11 11
-47 56 -80 101 -62 86 -122 133 -170 133 -56 0 -62 65 -12 131 14 19 41 66 61
104 46 92 112 179 267 353 l128 142 30 -25 c17 -15 52 -37 78 -50z m-510 -724
c40 -27 110 -104 110 -122 0 -4 -21 -6 -47 -4 -27 3 -86 7 -133 9 -92 5 -120
12 -120 30 0 22 101 116 124 116 13 0 42 -13 66 -29z"/>
</g>
</svg>
